<?xml version="1.0" encoding="utf-8"?>
<!-- Generator: Adobe Illustrator 18.1.1, SVG Export Plug-In . SVG Version: 6.00 Build 0)  -->
<!DOCTYPE svg PUBLIC "-//W3C//DTD SVG 1.1//EN" "http://www.w3.org/Graphics/SVG/1.1/DTD/svg11.dtd">
<svg version="1.1" id="_x31_0" xmlns="http://www.w3.org/2000/svg" xmlns:xlink="http://www.w3.org/1999/xlink" x="0px" y="0px"
	 viewBox="0 0 512 512" style="enable-background:new 0 0 512 512;" xml:space="preserve">
<style type="text/css">
	.st0{fill:#374149;}
</style>
<g>
	<path class="st0" d="M1.73,146.748H0.172l0,0h-0.16v278.02c0,10.941,8.867,19.781,19.777,19.781h472.402
		c10.942,0,19.809-8.84,19.809-19.781v-278.02H1.73z M42.707,285.935c0-31.754,11.035-62.766,31.043-87.301l2.426-2.976h99.406
		v42.371v95.812v42.375H76.176l-2.426-2.981C53.742,348.733,42.707,317.725,42.707,285.935z M438.262,373.236l-2.426,2.981h-99.442
		v-42.34v-95.878v-42.34h99.442l2.426,2.976c20.004,24.535,31.012,55.547,31.012,87.301
		C469.274,317.725,458.266,348.733,438.262,373.236z"/>
	<polygon class="st0" points="511.996,125.717 511.996,67.451 1.722,67.451 0.16,67.451 0.16,67.451 0,67.451 0,125.381 0,125.557 
		0,125.557 0,125.717 	"/>
	<path class="st0" d="M159.398,336.014v-32.758c-8.867-0.746-15.828-8.222-15.828-17.321c0-9.094,6.961-16.538,15.828-17.285
		v-31.664l0.004-0.965h-0.004v-0.16c-26.965,0.808-48.554,22.918-48.554,50.074C110.844,313.092,132.434,335.202,159.398,336.014z"
		/>
	<path class="st0" d="M358.254,236.397c-0.191-0.031-0.37-0.078-0.562-0.102c-0.797-0.11-1.613-0.145-2.418-0.215
		c-0.844-0.074-1.676-0.187-2.531-0.222v0.015c-0.055,0-0.11-0.011-0.16-0.011v32.722c9.258,0.39,16.668,7.996,16.668,17.351
		c0,9.356-7.41,16.997-16.668,17.383v32.695c26.898-0.875,48.457-22.953,48.457-50.078
		C401.039,260.748,382.442,239.943,358.254,236.397z"/>
</g>
</svg>
